<?xml version="1.0" encoding="UTF-8"?>
<!DOCTYPE svg PUBLIC "-//W3C//DTD SVG 1.1//EN" "http://www.w3.org/Graphics/SVG/1.1/DTD/svg11.dtd">
<svg xmlns="http://www.w3.org/2000/svg" version="1.1" width="512px" height="512px" style="shape-rendering:geometricPrecision; text-rendering:geometricPrecision; image-rendering:optimizeQuality; fill-rule:evenodd; clip-rule:evenodd" xmlns:xlink="http://www.w3.org/1999/xlink">
<g><path style="opacity:0.984" fill="#fbb758" d="M 346.5,26.5 C 344.19,27.1638 341.69,27.4971 339,27.5C 283.179,25.9015 227.346,24.9015 171.5,24.5C 198.4,14.1262 226.4,9.12622 255.5,9.5C 286.983,9.24637 317.317,14.913 346.5,26.5 Z"/></g>
<g><path style="opacity:0.991" fill="#fbb35b" d="M 171.5,24.5 C 227.346,24.9015 283.179,25.9015 339,27.5C 341.69,27.4971 344.19,27.1638 346.5,26.5C 354.596,29.3824 362.263,33.0491 369.5,37.5C 365.012,38.1659 360.346,38.4992 355.5,38.5C 319.506,37.4938 283.506,36.8272 247.5,36.5C 245.292,35.1064 243.792,33.1064 243,30.5C 242.376,33.2739 240.876,35.2739 238.5,36.5C 208.353,35.7759 178.353,34.7759 148.5,33.5C 155.838,29.6645 163.505,26.6645 171.5,24.5 Z"/></g>
<g><path style="opacity:1" fill="#fffaf4" d="M 247.5,36.5 C 248.058,37.7899 249.058,38.6232 250.5,39C 247.393,39.7059 245.393,41.5392 244.5,44.5C 243.778,44.9175 243.278,45.5842 243,46.5C 242.722,45.5842 242.222,44.9175 241.5,44.5C 240.641,41.5479 238.641,39.7146 235.5,39C 236.942,38.6232 237.942,37.7899 238.5,36.5C 240.876,35.2739 242.376,33.2739 243,30.5C 243.792,33.1064 245.292,35.1064 247.5,36.5 Z"/></g>
<g><path style="opacity:0.992" fill="#fab05f" d="M 148.5,33.5 C 178.353,34.7759 208.353,35.7759 238.5,36.5C 237.942,37.7899 236.942,38.6232 235.5,39C 238.641,39.7146 240.641,41.5479 241.5,44.5C 232.84,45.1665 224.006,45.4998 215,45.5C 188.5,45 162,44.5 135.5,44C 133.942,43.79 132.609,43.29 131.5,42.5C 137.008,39.2453 142.675,36.2453 148.5,33.5 Z"/></g>
<g><path style="opacity:0.995" fill="#fab05f" d="M 247.5,36.5 C 283.506,36.8272 319.506,37.4938 355.5,38.5C 360.346,38.4992 365.012,38.1659 369.5,37.5C 376.838,40.4972 383.505,44.4972 389.5,49.5C 349.546,48.0478 309.546,47.0478 269.5,46.5C 260.806,46.498 252.472,45.8313 244.5,44.5C 245.393,41.5392 247.393,39.7059 250.5,39C 249.058,38.6232 248.058,37.7899 247.5,36.5 Z"/></g>
<g><path style="opacity:0.997" fill="#faac62" d="M 131.5,42.5 C 132.609,43.29 133.942,43.79 135.5,44C 162,44.5 188.5,45 215,45.5C 224.006,45.4998 232.84,45.1665 241.5,44.5C 242.222,44.9175 242.722,45.5842 243,46.5C 243.278,45.5842 243.778,44.9175 244.5,44.5C 252.472,45.8313 260.806,46.498 269.5,46.5C 309.546,47.0478 349.546,48.0478 389.5,49.5C 393.852,51.6735 397.852,54.3401 401.5,57.5C 306.679,56.4282 211.679,54.7615 116.5,52.5C 121.291,48.9317 126.291,45.5984 131.5,42.5 Z"/></g>
<g><path style="opacity:0.997" fill="#f9aa64" d="M 116.5,52.5 C 211.679,54.7615 306.679,56.4282 401.5,57.5C 405.538,60.5116 409.538,63.5116 413.5,66.5C 395.83,66.6666 378.164,66.4999 360.5,66C 357.823,65.8324 355.49,64.999 353.5,63.5C 353.389,62.8826 353.056,62.3826 352.5,62C 326.167,61.3333 299.833,61.3333 273.5,62C 272.944,62.3826 272.611,62.8826 272.5,63.5C 269.417,64.125 266.251,64.4583 263,64.5C 237.316,64.0847 211.816,63.0847 186.5,61.5C 186.953,60.5416 187.619,59.7083 188.5,59C 187.667,58.1667 186.833,57.3333 186,56.5C 185.5,57.6667 184.667,58.5 183.5,59C 184.381,59.7083 185.047,60.5416 185.5,61.5C 158.67,62.0683 131.67,62.0683 104.5,61.5C 107.91,57.7621 111.91,54.7621 116.5,52.5 Z"/></g>
<g><path style="opacity:1" fill="#feecdd" d="M 186.5,61.5 C 186.167,61.5 185.833,61.5 185.5,61.5C 185.047,60.5416 184.381,59.7083 183.5,59C 184.667,58.5 185.5,57.6667 186,56.5C 186.833,57.3333 187.667,58.1667 188.5,59C 187.619,59.7083 186.953,60.5416 186.5,61.5 Z"/></g>
<g><path style="opacity:0.997" fill="#f8a568" d="M 104.5,61.5 C 131.67,62.0683 158.67,62.0683 185.5,61.5C 185.833,61.5 186.167,61.5 186.5,61.5C 211.816,63.0847 237.316,64.0847 263,64.5C 266.251,64.4583 269.417,64.125 272.5,63.5C 272.33,64.8221 272.663,65.9887 273.5,67C 299.833,67.6667 326.167,67.6667 352.5,67C 353.337,65.9887 353.67,64.8221 353.5,63.5C 355.49,64.999 357.823,65.8324 360.5,66C 378.164,66.4999 395.83,66.6666 413.5,66.5C 419.113,70.4797 424.113,75.1463 428.5,80.5C 397.326,80.4034 366.326,79.7368 335.5,78.5C 335.67,77.1779 335.337,76.0113 334.5,75C 321.66,74.1733 308.993,74.34 296.5,75.5C 295.596,76.209 295.263,77.209 295.5,78.5C 294.167,78.5 292.833,78.5 291.5,78.5C 291.67,77.1779 291.337,76.0113 290.5,75C 285.833,74.3333 281.167,74.3333 276.5,75C 275.748,75.6708 275.414,76.5041 275.5,77.5C 213.163,76.7138 150.83,75.7138 88.5,74.5C 93.2288,69.4393 98.5622,65.106 104.5,61.5 Z"/></g>
<g><path style="opacity:1" fill="#ef5f87" d="M 353.5,63.5 C 353.67,64.8221 353.337,65.9887 352.5,67C 326.167,67.6667 299.833,67.6667 273.5,67C 272.663,65.9887 272.33,64.8221 272.5,63.5C 272.611,62.8826 272.944,62.3826 273.5,62C 299.833,61.3333 326.167,61.3333 352.5,62C 353.056,62.3826 353.389,62.8826 353.5,63.5 Z"/></g>
<g><path style="opacity:0.997" fill="#f8a36b" d="M 88.5,74.5 C 150.83,75.7138 213.163,76.7138 275.5,77.5C 275.953,78.4584 276.619,79.2917 277.5,80C 282.457,81.0344 287.124,80.5344 291.5,78.5C 292.833,78.5 294.167,78.5 295.5,78.5C 295.263,77.209 295.596,76.209 296.5,75.5C 296.286,77.1439 296.62,78.6439 297.5,80C 309.5,80.6667 321.5,80.6667 333.5,80C 334.044,79.2828 334.711,78.7828 335.5,78.5C 366.326,79.7368 397.326,80.4034 428.5,80.5C 430.5,81.8333 432.167,83.5 433.5,85.5C 325.516,83.0758 217.516,80.9091 109.5,79C 101.435,79.1386 93.768,78.3053 86.5,76.5C 86.8333,75.5 87.5,74.8333 88.5,74.5 Z"/></g>
<g><path style="opacity:1" fill="#ef6286" d="M 291.5,78.5 C 287.124,80.5344 282.457,81.0344 277.5,80C 276.619,79.2917 275.953,78.4584 275.5,77.5C 275.414,76.5041 275.748,75.6708 276.5,75C 281.167,74.3333 285.833,74.3333 290.5,75C 291.337,76.0113 291.67,77.1779 291.5,78.5 Z"/></g>
<g><path style="opacity:1" fill="#ef5f87" d="M 335.5,78.5 C 334.711,78.7828 334.044,79.2828 333.5,80C 321.5,80.6667 309.5,80.6667 297.5,80C 296.62,78.6439 296.286,77.1439 296.5,75.5C 308.993,74.34 321.66,74.1733 334.5,75C 335.337,76.0113 335.67,77.1779 335.5,78.5 Z"/></g>
<g><path style="opacity:0.997" fill="#f79f6e" d="M 86.5,76.5 C 93.768,78.3053 101.435,79.1386 109.5,79C 217.516,80.9091 325.516,83.0758 433.5,85.5C 438.178,90.1793 442.511,95.1793 446.5,100.5C 344.669,98.529 243.002,96.1957 141.5,93.5C 142.29,92.2058 143.29,91.0391 144.5,90C 142.333,89.1667 140.833,87.6667 140,85.5C 139.052,87.5701 137.552,89.0701 135.5,90C 136.71,91.0391 137.71,92.2058 138.5,93.5C 116.01,93.7471 93.343,93.7471 70.5,93.5C 75.1289,87.2034 80.4623,81.5367 86.5,76.5 Z"/></g>
<g><path style="opacity:1" fill="#fef6f2" d="M 141.5,93.5 C 140.778,93.9175 140.278,94.5842 140,95.5C 139.722,94.5842 139.222,93.9175 138.5,93.5C 137.71,92.2058 136.71,91.0391 135.5,90C 137.552,89.0701 139.052,87.5701 140,85.5C 140.833,87.6667 142.333,89.1667 144.5,90C 143.29,91.0391 142.29,92.2058 141.5,93.5 Z"/></g>
<g><path style="opacity:1" fill="#ef5e87" d="M 295.5,87.5 C 309.171,87.3334 322.837,87.5001 336.5,88C 337.747,89.4579 337.747,90.9579 336.5,92.5C 322.846,93.6661 309.179,93.8327 295.5,93C 294.248,91.1722 294.248,89.3388 295.5,87.5 Z"/></g>
<g><path style="opacity:1" fill="#ef5e87" d="M 343.5,87.5 C 353.172,87.3335 362.839,87.5002 372.5,88C 373.86,89.9376 373.527,91.6043 371.5,93C 362.167,93.6667 352.833,93.6667 343.5,93C 342.248,91.1722 342.248,89.3388 343.5,87.5 Z"/></g>
<g><path style="opacity:0.998" fill="#f79d71" d="M 70.5,93.5 C 93.343,93.7471 116.01,93.7471 138.5,93.5C 139.222,93.9175 139.722,94.5842 140,95.5C 140.278,94.5842 140.778,93.9175 141.5,93.5C 243.002,96.1957 344.669,98.529 446.5,100.5C 447.906,100.973 448.573,101.973 448.5,103.5C 321.773,100.92 195.107,98.2537 68.5,95.5C 68.8333,94.5 69.5,93.8333 70.5,93.5 Z"/></g>
<g><path style="opacity:0.998" fill="#f69973" d="M 68.5,95.5 C 195.107,98.2537 321.773,100.92 448.5,103.5C 453.461,108.079 457.461,113.413 460.5,119.5C 447.827,119.348 435.161,119.015 422.5,118.5C 414.156,114.581 405.822,114.581 397.5,118.5C 336.5,117.167 275.5,115.833 214.5,114.5C 213.528,111.902 212.528,111.902 211.5,114.5C 163.499,113.811 115.499,112.978 67.5,112C 63.6437,111.823 59.977,111.323 56.5,110.5C 59.79,104.913 63.79,99.9131 68.5,95.5 Z"/></g>
<g><path style="opacity:1" fill="#fef1ed" d="M 214.5,114.5 C 215.574,115.885 216.907,117.051 218.5,118C 215.768,118.398 213.935,119.898 213,122.5C 212.065,119.898 210.232,118.398 207.5,118C 209.093,117.051 210.426,115.885 211.5,114.5C 212.528,111.902 213.528,111.902 214.5,114.5 Z"/></g>
<g><path style="opacity:1" fill="#ecebeb" d="M 119.5,132.5 C 120.44,140.779 120.773,149.112 120.5,157.5C 120.5,157.833 120.5,158.167 120.5,158.5C 120.667,225.501 120.5,292.501 120,359.5C 113.979,344.906 103.146,338.739 87.5,341C 76.7765,344.551 70.1098,351.718 67.5,362.5C 67.5,308.5 67.5,254.5 67.5,200.5C 67.5,186.167 67.5,171.833 67.5,157.5C 67.5,150.5 67.5,143.5 67.5,136.5C 75.6115,117.109 89.2782,111.609 108.5,120C 113.46,123.127 117.127,127.294 119.5,132.5 Z"/></g>
<g><path style="opacity:1" fill="#ecebeb" d="M 422.5,118.5 C 431.032,123.728 436.032,131.395 437.5,141.5C 437.5,147.5 437.5,153.5 437.5,159.5C 437.5,166.167 437.5,172.833 437.5,179.5C 437.5,185.5 437.5,191.5 437.5,197.5C 437.5,203.5 437.5,209.5 437.5,215.5C 437.5,221.5 437.5,227.5 437.5,233.5C 437.5,251.167 437.5,268.833 437.5,286.5C 437.5,305.167 437.5,323.833 437.5,342.5C 437.827,352.348 437.494,362.014 436.5,371.5C 436.545,350.711 426.211,340.544 405.5,341C 394.543,343.289 387.376,349.789 384,360.5C 383.5,293.167 383.333,225.834 383.5,158.5C 295.833,158.5 208.167,158.5 120.5,158.5C 120.5,158.167 120.5,157.833 120.5,157.5C 120.833,157.5 121.167,157.5 121.5,157.5C 188.833,157.5 256.167,157.5 323.5,157.5C 343.5,157.5 363.5,157.5 383.5,157.5C 383.5,151.833 383.5,146.167 383.5,140.5C 384.648,130.858 389.315,123.525 397.5,118.5C 405.822,114.581 414.156,114.581 422.5,118.5 Z"/></g>
<g><path style="opacity:1" fill="#f59379" d="M 56.5,110.5 C 59.977,111.323 63.6437,111.823 67.5,112C 115.499,112.978 163.499,113.811 211.5,114.5C 210.426,115.885 209.093,117.051 207.5,118C 210.232,118.398 212.065,119.898 213,122.5C 213.935,119.898 215.768,118.398 218.5,118C 216.907,117.051 215.574,115.885 214.5,114.5C 275.5,115.833 336.5,117.167 397.5,118.5C 389.315,123.525 384.648,130.858 383.5,140.5C 372.159,140.366 360.826,140.033 349.5,139.5C 350.122,137.665 351.456,136.498 353.5,136C 351,134.833 349.167,133 348,130.5C 347.004,132.66 345.504,134.327 343.5,135.5C 341.383,136.014 339.216,136.347 337,136.5C 264.516,134.569 192.016,133.236 119.5,132.5C 117.127,127.294 113.46,123.127 108.5,120C 89.2782,111.609 75.6115,117.109 67.5,136.5C 60.5683,134.696 53.2349,133.863 45.5,134C 44.2625,133.768 43.2625,133.268 42.5,132.5C 46.6703,124.82 51.337,117.487 56.5,110.5 Z"/></g>
<g><path style="opacity:0.988" fill="#f5937a" d="M 422.5,118.5 C 435.161,119.015 447.827,119.348 460.5,119.5C 465.906,126.631 470.572,134.298 474.5,142.5C 462.193,141.605 449.859,141.272 437.5,141.5C 436.032,131.395 431.032,123.728 422.5,118.5 Z"/></g>
<g><path style="opacity:1" fill="#fef1ef" d="M 349.5,139.5 C 348.883,139.611 348.383,139.944 348,140.5C 346.975,138.313 345.475,136.646 343.5,135.5C 345.504,134.327 347.004,132.66 348,130.5C 349.167,133 351,134.833 353.5,136C 351.456,136.498 350.122,137.665 349.5,139.5 Z"/></g>
<g><path style="opacity:0.988" fill="#f48c80" d="M 42.5,132.5 C 43.2625,133.268 44.2625,133.768 45.5,134C 53.2349,133.863 60.5683,134.696 67.5,136.5C 67.5,143.5 67.5,150.5 67.5,157.5C 67.1667,157.5 66.8333,157.5 66.5,157.5C 66.5,155.833 66.5,154.167 66.5,152.5C 55.1006,152.018 43.7673,151.352 32.5,150.5C 35.3418,144.143 38.6751,138.143 42.5,132.5 Z"/></g>
<g><path style="opacity:1" fill="#f48d80" d="M 119.5,132.5 C 192.016,133.236 264.516,134.569 337,136.5C 339.216,136.347 341.383,136.014 343.5,135.5C 345.475,136.646 346.975,138.313 348,140.5C 348.383,139.944 348.883,139.611 349.5,139.5C 360.826,140.033 372.159,140.366 383.5,140.5C 383.5,146.167 383.5,151.833 383.5,157.5C 363.5,157.5 343.5,157.5 323.5,157.5C 256.339,155.629 189.006,154.296 121.5,153.5C 121.5,154.833 121.5,156.167 121.5,157.5C 121.167,157.5 120.833,157.5 120.5,157.5C 120.773,149.112 120.44,140.779 119.5,132.5 Z"/></g>
<g><path style="opacity:0.993" fill="#f48c80" d="M 437.5,141.5 C 449.859,141.272 462.193,141.605 474.5,142.5C 477.44,148.046 480.106,153.713 482.5,159.5C 467.5,159.5 452.5,159.5 437.5,159.5C 437.5,153.5 437.5,147.5 437.5,141.5 Z"/></g>
<g><path style="opacity:0.99" fill="#f38686" d="M 32.5,150.5 C 43.7673,151.352 55.1006,152.018 66.5,152.5C 66.5,154.167 66.5,155.833 66.5,157.5C 66.5,162.5 66.5,167.5 66.5,172.5C 52.5177,171.657 38.5177,171.324 24.5,171.5C 26.3793,164.195 29.046,157.195 32.5,150.5 Z"/></g>
<g><path style="opacity:1" fill="#f48883" d="M 323.5,157.5 C 256.167,157.5 188.833,157.5 121.5,157.5C 121.5,156.167 121.5,154.833 121.5,153.5C 189.006,154.296 256.339,155.629 323.5,157.5 Z"/></g>
<g><path style="opacity:1" fill="#fefefe" d="M 120.5,158.5 C 208.167,158.5 295.833,158.5 383.5,158.5C 383.333,225.834 383.5,293.167 384,360.5C 387.376,349.789 394.543,343.289 405.5,341C 426.211,340.544 436.545,350.711 436.5,371.5C 434.422,384.745 426.756,392.578 413.5,395C 367.835,395.5 322.168,395.667 276.5,395.5C 214.166,395.667 151.832,395.5 89.5,395C 86.9196,393.856 84.2529,393.022 81.5,392.5C 72.1236,386.416 67.457,377.75 67.5,366.5C 67.5,365.167 67.5,363.833 67.5,362.5C 70.1098,351.718 76.7765,344.551 87.5,341C 103.146,338.739 113.979,344.906 120,359.5C 120.5,292.501 120.667,225.501 120.5,158.5 Z"/></g>
<g><path style="opacity:0.994" fill="#f38686" d="M 437.5,159.5 C 452.5,159.5 467.5,159.5 482.5,159.5C 485.167,166.5 487.833,173.5 490.5,180.5C 472.85,179.619 455.183,179.286 437.5,179.5C 437.5,172.833 437.5,166.167 437.5,159.5 Z"/></g>
<g><path style="opacity:0.995" fill="#f2808d" d="M 66.5,157.5 C 66.8333,157.5 67.1667,157.5 67.5,157.5C 67.5,171.833 67.5,186.167 67.5,200.5C 67.1667,200.5 66.8333,200.5 66.5,200.5C 66.5,197.167 66.5,193.833 66.5,190.5C 50.0893,190.182 33.756,190.516 17.5,191.5C 19.0647,184.468 21.398,177.802 24.5,171.5C 38.5177,171.324 52.5177,171.657 66.5,172.5C 66.5,167.5 66.5,162.5 66.5,157.5 Z"/></g>
<g><path style="opacity:0.994" fill="#f27f8c" d="M 437.5,179.5 C 455.183,179.286 472.85,179.619 490.5,180.5C 492.244,186.066 493.577,191.733 494.5,197.5C 475.665,198.454 456.665,198.454 437.5,197.5C 437.5,191.5 437.5,185.5 437.5,179.5 Z"/></g>
<g><path style="opacity:0.995" fill="#f17992" d="M 66.5,200.5 C 66.5,203.167 66.5,205.833 66.5,208.5C 48.9941,208.213 31.6608,207.547 14.5,206.5C 15.1168,201.416 16.1168,196.416 17.5,191.5C 33.756,190.516 50.0893,190.182 66.5,190.5C 66.5,193.833 66.5,197.167 66.5,200.5 Z"/></g>
<g><path style="opacity:0.993" fill="#f17992" d="M 437.5,197.5 C 456.665,198.454 475.665,198.454 494.5,197.5C 496.57,203.558 497.904,209.892 498.5,216.5C 478.169,216.029 457.836,215.696 437.5,215.5C 437.5,209.5 437.5,203.5 437.5,197.5 Z"/></g>
<g><path style="opacity:1" fill="#6e5ea8" d="M 274.5,202.5 C 274.5,219.833 274.5,237.167 274.5,254.5C 257.335,261.191 247.002,273.525 243.5,291.5C 224.5,291.5 205.5,291.5 186.5,291.5C 186.5,261.833 186.5,232.167 186.5,202.5C 215.833,202.5 245.167,202.5 274.5,202.5 Z"/></g>
<g><path style="opacity:0.994" fill="#f07499" d="M 66.5,200.5 C 66.8333,200.5 67.1667,200.5 67.5,200.5C 67.5,254.5 67.5,308.5 67.5,362.5C 67.5,363.833 67.5,365.167 67.5,366.5C 66.5058,356.347 66.1724,346.014 66.5,335.5C 66.5,316.833 66.5,298.167 66.5,279.5C 66.5,261.833 66.5,244.167 66.5,226.5C 48.19,225.567 29.8566,225.234 11.5,225.5C 11.764,218.922 12.764,212.589 14.5,206.5C 31.6608,207.547 48.9941,208.213 66.5,208.5C 66.5,205.833 66.5,203.167 66.5,200.5 Z"/></g>
<g><path style="opacity:0.995" fill="#f07397" d="M 437.5,215.5 C 457.836,215.696 478.169,216.029 498.5,216.5C 499.82,222.41 500.487,228.41 500.5,234.5C 479.51,233.709 458.51,233.375 437.5,233.5C 437.5,227.5 437.5,221.5 437.5,215.5 Z"/></g>
<g><path style="opacity:0.994" fill="#f06d98" d="M 11.5,225.5 C 29.8566,225.234 48.19,225.567 66.5,226.5C 66.5,244.167 66.5,261.833 66.5,279.5C 47.7652,279.044 29.0985,278.377 10.5,277.5C 9.86715,270.213 9.53382,262.879 9.5,255.5C 9.33214,245.289 9.99881,235.289 11.5,225.5 Z"/></g>
<g><path style="opacity:0.995" fill="#f06d98" d="M 437.5,233.5 C 458.51,233.375 479.51,233.709 500.5,234.5C 501.983,252.17 501.65,269.836 499.5,287.5C 478.839,286.893 458.172,286.56 437.5,286.5C 437.5,268.833 437.5,251.167 437.5,233.5 Z"/></g>
<g><path style="opacity:1" fill="#eaeaec" d="M 274.5,202.5 C 275.496,215.99 275.829,229.656 275.5,243.5C 311.578,237.785 335.411,252.118 347,286.5C 351.476,318.994 338.643,341.494 308.5,354C 282.249,360.805 260.749,353.638 244,332.5C 236.095,320.347 232.595,307.014 233.5,292.5C 217.658,292.83 201.991,292.496 186.5,291.5C 205.5,291.5 224.5,291.5 243.5,291.5C 243.5,291.833 243.5,292.167 243.5,292.5C 241.167,292.5 238.833,292.5 236.5,292.5C 234.889,319.46 246.222,338.627 270.5,350C 295.364,358.499 316.53,352.999 334,333.5C 348.859,311.403 349.193,289.07 335,266.5C 319.254,247.973 299.42,241.307 275.5,246.5C 275.5,248.833 275.5,251.167 275.5,253.5C 275.5,254.167 275.167,254.5 274.5,254.5C 274.5,237.167 274.5,219.833 274.5,202.5 Z"/></g>
<g><path style="opacity:1" fill="#fcfdfe" d="M 243.5,292.5 C 241.528,316.732 251.528,333.898 273.5,344C 295.962,350.844 314.796,345.344 330,327.5C 340.925,309.389 341.258,291.056 331,272.5C 316.722,254.132 298.222,247.799 275.5,253.5C 275.5,251.167 275.5,248.833 275.5,246.5C 299.42,241.307 319.254,247.973 335,266.5C 349.193,289.07 348.859,311.403 334,333.5C 316.53,352.999 295.364,358.499 270.5,350C 246.222,338.627 234.889,319.46 236.5,292.5C 238.833,292.5 241.167,292.5 243.5,292.5 Z"/></g>
<g><path style="opacity:1" fill="#58c5d5" d="M 243.5,292.5 C 243.5,292.167 243.5,291.833 243.5,291.5C 247.002,273.525 257.335,261.191 274.5,254.5C 275.167,254.5 275.5,254.167 275.5,253.5C 298.222,247.799 316.722,254.132 331,272.5C 341.258,291.056 340.925,309.389 330,327.5C 314.796,345.344 295.962,350.844 273.5,344C 251.528,333.898 241.528,316.732 243.5,292.5 Z"/></g>
<g><path style="opacity:0.993" fill="#f06892" d="M 10.5,277.5 C 29.0985,278.377 47.7652,279.044 66.5,279.5C 66.5,298.167 66.5,316.833 66.5,335.5C 51.8173,335.661 37.1507,335.328 22.5,334.5C 15.8403,316.177 11.8403,297.177 10.5,277.5 Z"/></g>
<g><path style="opacity:0.994" fill="#f06892" d="M 437.5,286.5 C 458.172,286.56 478.839,286.893 499.5,287.5C 497.185,307.094 492.518,326.094 485.5,344.5C 469.576,343.445 453.576,342.778 437.5,342.5C 437.5,323.833 437.5,305.167 437.5,286.5 Z"/></g>
<g><path style="opacity:0.99" fill="#ef638c" d="M 22.5,334.5 C 37.1507,335.328 51.8173,335.661 66.5,335.5C 66.1724,346.014 66.5058,356.347 67.5,366.5C 67.457,377.75 72.1236,386.416 81.5,392.5C 73.6504,392.577 65.8171,392.244 58,391.5C 55.3897,391.533 53.223,392.2 51.5,393.5C 38.9354,375.369 29.2687,355.703 22.5,334.5 Z"/></g>
<g><path style="opacity:0.992" fill="#ef638c" d="M 437.5,342.5 C 453.576,342.778 469.576,343.445 485.5,344.5C 477.603,364.676 467.27,383.343 454.5,400.5C 395.18,398.406 335.847,396.739 276.5,395.5C 322.168,395.667 367.835,395.5 413.5,395C 426.756,392.578 434.422,384.745 436.5,371.5C 437.494,362.014 437.827,352.348 437.5,342.5 Z"/></g>
<g><path style="opacity:0.998" fill="#ef5f87" d="M 81.5,392.5 C 84.2529,393.022 86.9196,393.856 89.5,395C 151.832,395.5 214.166,395.667 276.5,395.5C 335.847,396.739 395.18,398.406 454.5,400.5C 446.256,412.08 436.922,422.747 426.5,432.5C 316.168,429.92 205.668,427.586 95,425.5C 89.3229,425.501 83.8229,425.834 78.5,426.5C 68.3955,416.396 59.3955,405.396 51.5,393.5C 53.223,392.2 55.3897,391.533 58,391.5C 65.8171,392.244 73.6504,392.577 81.5,392.5 Z"/></g>
<g><path style="opacity:1" fill="#fdeaef" d="M 136.5,415.5 C 141.166,416.822 141.499,418.822 137.5,421.5C 134.025,419.916 133.692,417.916 136.5,415.5 Z"/></g>
<g><path style="opacity:1" fill="#feeff3" d="M 352.5,415.5 C 357.166,416.822 357.499,418.822 353.5,421.5C 350.481,419.626 350.148,417.626 352.5,415.5 Z"/></g>
<g><path style="opacity:1" fill="#f38b82" d="M 163.5,417.5 C 189.835,417.333 216.169,417.5 242.5,418C 243.833,419.667 243.833,421.333 242.5,423C 216.167,423.667 189.833,423.667 163.5,423C 162.248,421.172 162.248,419.339 163.5,417.5 Z"/></g>
<g><path style="opacity:0.997" fill="#ef5c84" d="M 426.5,432.5 C 418.616,440.773 409.949,448.106 400.5,454.5C 309.498,453.026 218.498,451.359 127.5,449.5C 119.992,449.5 112.659,449.834 105.5,450.5C 99.7557,446.93 94.4224,442.763 89.5,438C 85.6295,434.298 81.9629,430.464 78.5,426.5C 83.8229,425.834 89.3229,425.501 95,425.5C 205.668,427.586 316.168,429.92 426.5,432.5 Z"/></g>
<g><path style="opacity:1" fill="#f38a82" d="M 167.5,429.5 C 171.514,429.334 175.514,429.501 179.5,430C 180.554,431.388 180.72,432.888 180,434.5C 175.587,435.632 171.087,435.799 166.5,435C 165.243,432.924 165.576,431.09 167.5,429.5 Z"/></g>
<g><path style="opacity:1" fill="#f38b82" d="M 187.5,429.5 C 199.505,429.333 211.505,429.5 223.5,430C 224.833,431.667 224.833,433.333 223.5,435C 211.167,435.667 198.833,435.667 186.5,435C 185.243,432.924 185.576,431.09 187.5,429.5 Z"/></g>
<g><path style="opacity:1" fill="#f38882" d="M 186.5,442.5 C 199.504,442.333 212.504,442.5 225.5,443C 228.167,445 228.167,447 225.5,449C 212.5,449.667 199.5,449.667 186.5,449C 183.939,446.844 183.939,444.677 186.5,442.5 Z"/></g>
<g><path style="opacity:1" fill="#f38882" d="M 233.5,442.5 C 242.839,442.334 252.173,442.5 261.5,443C 264.167,445 264.167,447 261.5,449C 252.5,449.667 243.5,449.667 234.5,449C 232.316,447.102 231.983,444.936 233.5,442.5 Z"/></g>
<g><path style="opacity:0.989" fill="#ef5a82" d="M 400.5,454.5 C 339.062,497.859 271.396,511.359 197.5,495C 163.408,486.784 132.741,471.951 105.5,450.5C 112.659,449.834 119.992,449.5 127.5,449.5C 218.498,451.359 309.498,453.026 400.5,454.5 Z"/></g>
<g><path style="opacity:1" fill="#fef5f7" d="M 290.5,465.5 C 292.256,469.093 294.923,471.926 298.5,474C 295,475.5 292.5,478 291,481.5C 289.407,477.572 286.573,475.072 282.5,474C 286.748,472.587 289.415,469.754 290.5,465.5 Z"/></g>
</svg>
