<?xml version="1.0" encoding="UTF-8"?>
<!DOCTYPE svg PUBLIC "-//W3C//DTD SVG 1.1//EN" "http://www.w3.org/Graphics/SVG/1.1/DTD/svg11.dtd">
<svg xmlns="http://www.w3.org/2000/svg" version="1.1" width="512px" height="512px" style="shape-rendering:geometricPrecision; text-rendering:geometricPrecision; image-rendering:optimizeQuality; fill-rule:evenodd; clip-rule:evenodd" xmlns:xlink="http://www.w3.org/1999/xlink">
<g><path style="opacity:0.984" fill="#ef6070" d="M 232.5,-0.5 C 247.833,-0.5 263.167,-0.5 278.5,-0.5C 302.298,1.86607 325.298,7.53274 347.5,16.5C 286.331,16.8324 225.331,16.4991 164.5,15.5C 186.603,7.30612 209.269,1.97279 232.5,-0.5 Z"/></g>
<g><path style="opacity:0.994" fill="#eb5e72" d="M 164.5,15.5 C 225.331,16.4991 286.331,16.8324 347.5,16.5C 357.816,19.4935 367.483,23.8268 376.5,29.5C 295.833,29.5 215.167,29.5 134.5,29.5C 144.002,23.8824 154.002,19.2157 164.5,15.5 Z"/></g>
<g><path style="opacity:0.996" fill="#e85c73" d="M 134.5,29.5 C 215.167,29.5 295.833,29.5 376.5,29.5C 382.005,31.7487 387.005,34.7487 391.5,38.5C 300.833,39.8333 210.167,39.8333 119.5,38.5C 123.995,34.7487 128.995,31.7487 134.5,29.5 Z"/></g>
<g><path style="opacity:0.997" fill="#e35975" d="M 119.5,38.5 C 210.167,39.8333 300.833,39.8333 391.5,38.5C 404.637,45.9682 416.637,54.9682 427.5,65.5C 312.931,66.832 198.264,66.832 83.5,65.5C 94.3632,54.9682 106.363,45.9682 119.5,38.5 Z"/></g>
<g><path style="opacity:0.998" fill="#dd5677" d="M 83.5,65.5 C 198.264,66.832 312.931,66.832 427.5,65.5C 436.069,72.6394 443.735,80.6394 450.5,89.5C 320.5,89.5 190.5,89.5 60.5,89.5C 67.4654,80.8671 75.1321,72.8671 83.5,65.5 Z"/></g>
<g><path style="opacity:0.998" fill="#d75379" d="M 60.5,89.5 C 190.5,89.5 320.5,89.5 450.5,89.5C 456.612,94.9467 461.612,101.28 465.5,108.5C 361.335,109.499 257.001,109.833 152.5,109.5C 140.974,108.22 129.307,108.22 117.5,109.5C 93.1667,109.5 68.8333,109.5 44.5,109.5C 49.3636,102.429 54.6969,95.7624 60.5,89.5 Z"/></g>
<g><path style="opacity:1" fill="#fcfbfc" d="M 152.5,109.5 C 152.5,116.5 152.5,123.5 152.5,130.5C 152.5,139.167 152.5,147.833 152.5,156.5C 152.5,158.5 152.5,160.5 152.5,162.5C 152.5,170.167 152.5,177.833 152.5,185.5C 152.5,200.833 152.5,216.167 152.5,231.5C 152.5,244.167 152.5,256.833 152.5,269.5C 152.5,277.167 152.5,284.833 152.5,292.5C 142.494,292.334 132.494,292.5 122.5,293C 118.386,293.115 114.719,294.282 111.5,296.5C 107.918,298.12 104.918,300.453 102.5,303.5C 101.501,247.002 101.168,190.336 101.5,133.5C 101.5,132.5 101.5,131.5 101.5,130.5C 103.838,121.169 109.171,114.169 117.5,109.5C 129.307,108.22 140.974,108.22 152.5,109.5 Z"/></g>
<g><path style="opacity:0.995" fill="#d2507b" d="M 44.5,109.5 C 68.8333,109.5 93.1667,109.5 117.5,109.5C 109.171,114.169 103.838,121.169 101.5,130.5C 78.1667,130.5 54.8333,130.5 31.5,130.5C 35.4371,123.235 39.7704,116.235 44.5,109.5 Z"/></g>
<g><path style="opacity:0.999" fill="#d24f7b" d="M 465.5,108.5 C 470.652,115.458 475.319,122.792 479.5,130.5C 370.5,130.5 261.5,130.5 152.5,130.5C 152.5,123.5 152.5,116.5 152.5,109.5C 257.001,109.833 361.335,109.499 465.5,108.5 Z"/></g>
<g><path style="opacity:0.996" fill="#cb4b7e" d="M 31.5,130.5 C 54.8333,130.5 78.1667,130.5 101.5,130.5C 101.5,131.5 101.5,132.5 101.5,133.5C 100.506,142.986 100.173,152.652 100.5,162.5C 72.5,162.5 44.5,162.5 16.5,162.5C 20.4258,151.316 25.4258,140.649 31.5,130.5 Z"/></g>
<g><path style="opacity:0.999" fill="#cc4c7d" d="M 152.5,130.5 C 261.5,130.5 370.5,130.5 479.5,130.5C 484.343,138.854 488.677,147.52 492.5,156.5C 379.167,156.5 265.833,156.5 152.5,156.5C 152.5,147.833 152.5,139.167 152.5,130.5 Z"/></g>
<g><path style="opacity:0.999" fill="#c8497f" d="M 152.5,156.5 C 265.833,156.5 379.167,156.5 492.5,156.5C 493.363,158.421 494.029,160.421 494.5,162.5C 380.5,162.5 266.5,162.5 152.5,162.5C 152.5,160.5 152.5,158.5 152.5,156.5 Z"/></g>
<g><path style="opacity:0.997" fill="#c44780" d="M 16.5,162.5 C 44.5,162.5 72.5,162.5 100.5,162.5C 100.5,170.167 100.5,177.833 100.5,185.5C 69.9954,185.831 39.6621,185.498 9.5,184.5C 11.0331,176.901 13.3665,169.568 16.5,162.5 Z"/></g>
<g><path style="opacity:0.997" fill="#c64d84" d="M 152.5,162.5 C 266.5,162.5 380.5,162.5 494.5,162.5C 497.935,169.803 500.602,177.469 502.5,185.5C 467.5,185.5 432.5,185.5 397.5,185.5C 388.275,174.552 376.608,167.719 362.5,165C 295.501,164.5 228.501,164.333 161.5,164.5C 161.832,209.336 161.499,254.003 160.5,298.5C 160.5,297.833 160.5,297.167 160.5,296.5C 160.5,287.5 160.5,278.5 160.5,269.5C 160.5,256.833 160.5,244.167 160.5,231.5C 160.5,216.167 160.5,200.833 160.5,185.5C 157.833,185.5 155.167,185.5 152.5,185.5C 152.5,177.833 152.5,170.167 152.5,162.5 Z"/></g>
<g><path style="opacity:1" fill="#fcfcfc" d="M 397.5,185.5 C 402.28,193.055 405.946,201.055 408.5,209.5C 409.265,212.096 409.599,214.763 409.5,217.5C 409.832,272.336 409.499,327.003 408.5,381.5C 405.81,378.815 402.81,376.482 399.5,374.5C 396.233,373.244 392.899,372.077 389.5,371C 299.5,370.667 209.5,370.333 119.5,370C 115.952,368.396 112.618,366.563 109.5,364.5C 106.633,360.76 104.3,356.76 102.5,352.5C 101.585,343.54 101.252,334.54 101.5,325.5C 101.517,323.435 101.85,321.435 102.5,319.5C 103.773,317.287 104.773,314.954 105.5,312.5C 109.535,307.633 114.535,304.133 120.5,302C 133.167,301.667 145.833,301.333 158.5,301C 159.381,300.292 160.047,299.458 160.5,298.5C 161.499,254.003 161.832,209.336 161.5,164.5C 228.501,164.333 295.501,164.5 362.5,165C 376.608,167.719 388.275,174.552 397.5,185.5 Z"/></g>
<g><path style="opacity:0.998" fill="#be4483" d="M 397.5,185.5 C 432.5,185.5 467.5,185.5 502.5,185.5C 504.804,193.022 506.471,200.688 507.5,208.5C 474.635,208.178 441.635,208.511 408.5,209.5C 405.946,201.055 402.28,193.055 397.5,185.5 Z"/></g>
<g><path style="opacity:0.996" fill="#bd4483" d="M 9.5,184.5 C 39.6621,185.498 69.9954,185.831 100.5,185.5C 100.5,193.167 100.5,200.833 100.5,208.5C 68.1667,208.5 35.8333,208.5 3.5,208.5C 4.58495,200.16 6.58495,192.16 9.5,184.5 Z"/></g>
<g><path style="opacity:0.997" fill="#b84185" d="M 3.5,208.5 C 35.8333,208.5 68.1667,208.5 100.5,208.5C 100.5,216.167 100.5,223.833 100.5,231.5C 67.1667,231.5 33.8333,231.5 0.5,231.5C 0.766829,223.697 1.76683,216.03 3.5,208.5 Z"/></g>
<g><path style="opacity:1" fill="#ba4284" d="M 152.5,185.5 C 155.167,185.5 157.833,185.5 160.5,185.5C 160.5,200.833 160.5,216.167 160.5,231.5C 157.833,231.5 155.167,231.5 152.5,231.5C 152.5,216.167 152.5,200.833 152.5,185.5 Z"/></g>
<g><path style="opacity:1" fill="#bb4788" d="M 344.5,188.5 C 355.476,189.535 365.976,192.202 376,196.5C 374.823,206.712 372.489,216.712 369,226.5C 367.806,227.43 366.473,228.097 365,228.5C 357.333,226.167 349.667,223.833 342,221.5C 330.254,227.551 317.754,230.217 304.5,229.5C 298.132,237.679 289.799,240.845 279.5,239C 267.968,234.443 262.634,225.943 263.5,213.5C 253.742,212.524 244.409,214.024 235.5,218C 232.02,225.443 229.52,233.277 228,241.5C 227.204,243.967 225.537,245.3 223,245.5C 213.78,243.447 204.78,240.78 196,237.5C 195.333,234.5 195.333,231.5 196,228.5C 198.133,222.303 199.8,215.969 201,209.5C 202.334,205.896 204.834,204.729 208.5,206C 214.804,207.935 221.137,209.768 227.5,211.5C 239.004,205.386 251.17,203.386 264,205.5C 268.18,201.661 272.68,198.161 277.5,195C 297.096,191.428 307.429,199.595 308.5,219.5C 318.461,220.717 327.794,218.884 336.5,214C 338.946,205.366 341.613,196.866 344.5,188.5 Z"/></g>
<g><path style="opacity:1" fill="#fcfafb" d="M 281.5,202.5 C 296.75,202.899 301.917,210.233 297,224.5C 291.395,230.776 284.895,231.943 277.5,228C 271.896,221.803 271.063,214.969 275,207.5C 276.965,205.45 279.132,203.783 281.5,202.5 Z"/></g>
<g><path style="opacity:1" fill="#fbf8fa" d="M 350.5,198.5 C 355.833,199.5 361.167,200.5 366.5,201.5C 365.167,206.833 363.833,212.167 362.5,217.5C 357.144,216.881 351.977,215.548 347,213.5C 347.534,208.406 348.7,203.406 350.5,198.5 Z"/></g>
<g><path style="opacity:0.997" fill="#b84185" d="M 507.5,208.5 C 509.415,215.576 510.415,222.909 510.5,230.5C 477.338,231.498 444.004,231.832 410.5,231.5C 410.819,226.637 410.486,221.97 409.5,217.5C 409.599,214.763 409.265,212.096 408.5,209.5C 441.635,208.511 474.635,208.178 507.5,208.5 Z"/></g>
<g><path style="opacity:1" fill="#fbf8f9" d="M 208.5,215.5 C 214.084,216.361 219.418,218.028 224.5,220.5C 223.457,225.729 221.79,230.729 219.5,235.5C 214.954,234.24 210.454,232.906 206,231.5C 206.497,226.162 207.33,220.829 208.5,215.5 Z"/></g>
<g><path style="opacity:1" fill="#c671a4" d="M 101.5,133.5 C 101.168,190.336 101.501,247.002 102.5,303.5C 101.377,304.757 100.711,304.424 100.5,302.5C 100.5,298.5 100.5,294.5 100.5,290.5C 100.5,287.167 100.5,283.833 100.5,280.5C 100.5,276.833 100.5,273.167 100.5,269.5C 100.5,265.833 100.5,262.167 100.5,258.5C 100.5,249.5 100.5,240.5 100.5,231.5C 100.5,223.833 100.5,216.167 100.5,208.5C 100.5,200.833 100.5,193.167 100.5,185.5C 100.5,177.833 100.5,170.167 100.5,162.5C 100.173,152.652 100.506,142.986 101.5,133.5 Z"/></g>
<g><path style="opacity:0.999" fill="#b13d87" d="M 0.5,231.5 C 33.8333,231.5 67.1667,231.5 100.5,231.5C 100.5,240.5 100.5,249.5 100.5,258.5C 66.8333,258.5 33.1667,258.5 -0.5,258.5C -0.5,249.833 -0.5,241.167 -0.5,232.5C 0.166667,232.5 0.5,232.167 0.5,231.5 Z"/></g>
<g><path style="opacity:1" fill="#b03d88" d="M 152.5,231.5 C 155.167,231.5 157.833,231.5 160.5,231.5C 160.5,244.167 160.5,256.833 160.5,269.5C 157.833,269.5 155.167,269.5 152.5,269.5C 152.5,256.833 152.5,244.167 152.5,231.5 Z"/></g>
<g><path style="opacity:0.999" fill="#b13d87" d="M 510.5,230.5 C 510.833,230.5 511.167,230.5 511.5,230.5C 511.5,239.833 511.5,249.167 511.5,258.5C 477.833,258.5 444.167,258.5 410.5,258.5C 410.5,249.5 410.5,240.5 410.5,231.5C 444.004,231.832 477.338,231.498 510.5,230.5 Z"/></g>
<g><path style="opacity:0.999" fill="#ab3c8a" d="M -0.5,258.5 C 33.1667,258.5 66.8333,258.5 100.5,258.5C 100.5,262.167 100.5,265.833 100.5,269.5C 66.7602,269.174 33.0935,269.507 -0.5,270.5C -0.5,266.5 -0.5,262.5 -0.5,258.5 Z"/></g>
<g><path style="opacity:1" fill="#ab3c8a" d="M 410.5,258.5 C 444.167,258.5 477.833,258.5 511.5,258.5C 511.5,262.167 511.5,265.833 511.5,269.5C 477.833,269.5 444.167,269.5 410.5,269.5C 410.5,265.833 410.5,262.167 410.5,258.5 Z"/></g>
<g><path style="opacity:0.997" fill="#a5418d" d="M 100.5,269.5 C 100.5,273.167 100.5,276.833 100.5,280.5C 67.0935,280.826 33.7602,280.493 0.5,279.5C 0.5,278.833 0.166667,278.5 -0.5,278.5C -0.5,275.833 -0.5,273.167 -0.5,270.5C 33.0935,269.507 66.7602,269.174 100.5,269.5 Z"/></g>
<g><path style="opacity:0.996" fill="#a5418d" d="M 410.5,269.5 C 444.167,269.5 477.833,269.5 511.5,269.5C 511.5,273.167 511.5,276.833 511.5,280.5C 511.167,280.5 510.833,280.5 510.5,280.5C 477.167,280.5 443.833,280.5 410.5,280.5C 410.5,276.833 410.5,273.167 410.5,269.5 Z"/></g>
<g><path style="opacity:1" fill="#a44791" d="M 379.5,290.5 C 376.833,290.5 374.167,290.5 371.5,290.5C 371.815,286.629 371.482,282.962 370.5,279.5C 367.833,279.5 365.167,279.5 362.5,279.5C 362.666,286.175 362.5,292.842 362,299.5C 358.988,302.25 356.321,301.917 354,298.5C 353.5,292.175 353.334,285.842 353.5,279.5C 348.5,279.5 343.5,279.5 338.5,279.5C 338.666,284.844 338.499,290.177 338,295.5C 335.284,299.476 332.617,299.476 330,295.5C 329.501,290.177 329.334,284.844 329.5,279.5C 324.5,279.5 319.5,279.5 314.5,279.5C 314.666,284.179 314.499,288.845 314,293.5C 311.633,296.932 308.966,297.265 306,294.5C 305.501,289.511 305.334,284.511 305.5,279.5C 300.36,278.512 295.026,278.179 289.5,278.5C 289.5,285.167 289.5,291.833 289.5,298.5C 289.315,300.89 287.982,301.89 285.5,301.5C 283.018,301.89 281.685,300.89 281.5,298.5C 281.5,291.833 281.5,285.167 281.5,278.5C 275.974,278.179 270.64,278.512 265.5,279.5C 265.666,285.842 265.5,292.175 265,298.5C 261.844,301.399 259.178,301.065 257,297.5C 256.501,291.509 256.334,285.509 256.5,279.5C 251.5,279.5 246.5,279.5 241.5,279.5C 241.666,285.509 241.499,291.509 241,297.5C 238.383,301.476 235.716,301.476 233,297.5C 232.501,291.509 232.334,285.509 232.5,279.5C 227.5,279.5 222.5,279.5 217.5,279.5C 217.666,284.179 217.499,288.845 217,293.5C 214.633,296.932 211.966,297.265 209,294.5C 208.501,289.511 208.334,284.511 208.5,279.5C 206.167,279.5 203.833,279.5 201.5,279.5C 200.518,282.962 200.185,286.629 200.5,290.5C 197.833,290.5 195.167,290.5 192.5,290.5C 192.5,284.5 192.5,278.5 192.5,272.5C 192.611,271.883 192.944,271.383 193.5,271C 254.833,270.333 316.167,270.333 377.5,271C 378,271.5 378.5,272 379,272.5C 379.499,278.491 379.666,284.491 379.5,290.5 Z"/></g>
<g><path style="opacity:0.998" fill="#9f4591" d="M 0.5,279.5 C 33.7602,280.493 67.0935,280.826 100.5,280.5C 100.5,283.833 100.5,287.167 100.5,290.5C 67.5,290.5 34.5,290.5 1.5,290.5C 0.656075,286.901 0.322742,283.234 0.5,279.5 Z"/></g>
<g><path style="opacity:0.996" fill="#9f4591" d="M 410.5,280.5 C 443.833,280.5 477.167,280.5 510.5,280.5C 510.81,283.713 510.477,286.713 509.5,289.5C 476.573,290.492 443.573,290.826 410.5,290.5C 410.5,287.167 410.5,283.833 410.5,280.5 Z"/></g>
<g><path style="opacity:1" fill="#cfa3c8" d="M 305.5,279.5 C 300.5,279.5 295.5,279.5 290.5,279.5C 290.823,286.022 290.49,292.355 289.5,298.5C 289.5,291.833 289.5,285.167 289.5,278.5C 295.026,278.179 300.36,278.512 305.5,279.5 Z"/></g>
<g><path style="opacity:1" fill="#cfa4c8" d="M 265.5,279.5 C 270.64,278.512 275.974,278.179 281.5,278.5C 281.5,285.167 281.5,291.833 281.5,298.5C 280.51,292.355 280.177,286.022 280.5,279.5C 275.5,279.5 270.5,279.5 265.5,279.5 Z"/></g>
<g><path style="opacity:1" fill="#9d4993" d="M 152.5,269.5 C 155.167,269.5 157.833,269.5 160.5,269.5C 160.5,278.5 160.5,287.5 160.5,296.5C 144.167,296.5 127.833,296.5 111.5,296.5C 114.719,294.282 118.386,293.115 122.5,293C 132.494,292.5 142.494,292.334 152.5,292.5C 152.5,284.833 152.5,277.167 152.5,269.5 Z"/></g>
<g><path style="opacity:0.997" fill="#994a94" d="M 509.5,289.5 C 509.477,294.297 508.811,298.964 507.5,303.5C 475.24,302.508 442.907,302.174 410.5,302.5C 410.5,298.5 410.5,294.5 410.5,290.5C 443.573,290.826 476.573,290.492 509.5,289.5 Z"/></g>
<g><path style="opacity:0.996" fill="#984b95" d="M 1.5,290.5 C 34.5,290.5 67.5,290.5 100.5,290.5C 100.5,294.5 100.5,298.5 100.5,302.5C 68.0934,302.174 35.76,302.508 3.5,303.5C 2.51033,299.228 1.84366,294.894 1.5,290.5 Z"/></g>
<g><path style="opacity:0.997" fill="#934f98" d="M 111.5,296.5 C 127.833,296.5 144.167,296.5 160.5,296.5C 160.5,297.167 160.5,297.833 160.5,298.5C 160.047,299.458 159.381,300.292 158.5,301C 145.833,301.333 133.167,301.667 120.5,302C 114.535,304.133 109.535,307.633 105.5,312.5C 72.1667,312.5 38.8333,312.5 5.5,312.5C 4.58262,309.583 3.91596,306.583 3.5,303.5C 35.76,302.508 68.0934,302.174 100.5,302.5C 100.711,304.424 101.377,304.757 102.5,303.5C 104.918,300.453 107.918,298.12 111.5,296.5 Z"/></g>
<g><path style="opacity:0.996" fill="#924f98" d="M 410.5,302.5 C 442.907,302.174 475.24,302.508 507.5,303.5C 507.3,306.63 506.634,309.63 505.5,312.5C 473.833,312.5 442.167,312.5 410.5,312.5C 410.5,309.167 410.5,305.833 410.5,302.5 Z"/></g>
<g><path style="opacity:0.996" fill="#8d539b" d="M 5.5,312.5 C 38.8333,312.5 72.1667,312.5 105.5,312.5C 104.773,314.954 103.773,317.287 102.5,319.5C 70.8333,319.5 39.1667,319.5 7.5,319.5C 6.38815,317.401 5.72148,315.067 5.5,312.5 Z"/></g>
<g><path style="opacity:1" fill="#8d539b" d="M 371.5,290.5 C 374.167,290.5 376.833,290.5 379.5,290.5C 379.5,304.5 379.5,318.5 379.5,332.5C 376.833,332.5 374.167,332.5 371.5,332.5C 371.5,318.5 371.5,304.5 371.5,290.5 Z"/></g>
<g><path style="opacity:0.997" fill="#8a559d" d="M 410.5,312.5 C 442.167,312.5 473.833,312.5 505.5,312.5C 504.815,317.239 503.815,321.905 502.5,326.5C 471.833,326.5 441.167,326.5 410.5,326.5C 410.5,321.833 410.5,317.167 410.5,312.5 Z"/></g>
<g><path style="opacity:0.997" fill="#86589f" d="M 7.5,319.5 C 39.1667,319.5 70.8333,319.5 102.5,319.5C 101.85,321.435 101.517,323.435 101.5,325.5C 100.532,327.607 100.198,329.941 100.5,332.5C 70.662,332.169 40.9953,332.502 11.5,333.5C 9.2538,329.195 7.92046,324.529 7.5,319.5 Z"/></g>
<g><path style="opacity:0.999" fill="#835aa1" d="M 410.5,326.5 C 441.167,326.5 471.833,326.5 502.5,326.5C 501.308,330.302 499.975,333.969 498.5,337.5C 469.167,337.5 439.833,337.5 410.5,337.5C 410.5,333.833 410.5,330.167 410.5,326.5 Z"/></g>
<g><path style="opacity:0.997" fill="#7f5da3" d="M 100.5,332.5 C 100.5,336.5 100.5,340.5 100.5,344.5C 71.9951,344.169 43.6618,344.502 15.5,345.5C 13.5947,341.784 12.2613,337.784 11.5,333.5C 40.9953,332.502 70.662,332.169 100.5,332.5 Z"/></g>
<g><path style="opacity:1" fill="#bd9cc5" d="M 409.5,217.5 C 410.486,221.97 410.819,226.637 410.5,231.5C 410.5,240.5 410.5,249.5 410.5,258.5C 410.5,262.167 410.5,265.833 410.5,269.5C 410.5,273.167 410.5,276.833 410.5,280.5C 410.5,283.833 410.5,287.167 410.5,290.5C 410.5,294.5 410.5,298.5 410.5,302.5C 410.5,305.833 410.5,309.167 410.5,312.5C 410.5,317.167 410.5,321.833 410.5,326.5C 410.5,330.167 410.5,333.833 410.5,337.5C 410.5,342.833 410.5,348.167 410.5,353.5C 410.5,357.167 410.5,360.833 410.5,364.5C 410.5,368.167 410.5,371.833 410.5,375.5C 410.808,377.924 410.474,380.257 409.5,382.5C 408.893,382.376 408.56,382.043 408.5,381.5C 409.499,327.003 409.832,272.336 409.5,217.5 Z"/></g>
<g><path style="opacity:0.995" fill="#7a62a6" d="M 101.5,325.5 C 101.252,334.54 101.585,343.54 102.5,352.5C 74.6716,353.498 46.6716,353.831 18.5,353.5C 17.1084,350.993 16.1084,348.327 15.5,345.5C 43.6618,344.502 71.9951,344.169 100.5,344.5C 100.5,340.5 100.5,336.5 100.5,332.5C 100.198,329.941 100.532,327.607 101.5,325.5 Z"/></g>
<g><path style="opacity:1" fill="#8267a9" d="M 192.5,272.5 C 192.5,278.5 192.5,284.5 192.5,290.5C 192.5,304.5 192.5,318.5 192.5,332.5C 195.167,332.5 197.833,332.5 200.5,332.5C 200.5,335.833 200.5,339.167 200.5,342.5C 257.336,342.832 314.002,342.499 370.5,341.5C 370.5,320.833 370.5,300.167 370.5,279.5C 371.482,282.962 371.815,286.629 371.5,290.5C 371.5,304.5 371.5,318.5 371.5,332.5C 374.167,332.5 376.833,332.5 379.5,332.5C 379.666,338.176 379.499,343.843 379,349.5C 378.5,350 378,350.5 377.5,351C 316.5,351.667 255.5,351.667 194.5,351C 193.667,350.167 192.833,349.333 192,348.5C 191.17,322.997 191.337,297.663 192.5,272.5 Z"/></g>
<g><path style="opacity:1" fill="#ebe6f0" d="M 201.5,279.5 C 201.5,300.167 201.5,320.833 201.5,341.5C 257.833,341.5 314.167,341.5 370.5,341.5C 314.002,342.499 257.336,342.832 200.5,342.5C 200.5,339.167 200.5,335.833 200.5,332.5C 200.5,318.5 200.5,304.5 200.5,290.5C 200.185,286.629 200.518,282.962 201.5,279.5 Z"/></g>
<g><path style="opacity:1" fill="#8d539b" d="M 192.5,290.5 C 195.167,290.5 197.833,290.5 200.5,290.5C 200.5,304.5 200.5,318.5 200.5,332.5C 197.833,332.5 195.167,332.5 192.5,332.5C 192.5,318.5 192.5,304.5 192.5,290.5 Z"/></g>
<g><path style="opacity:1" fill="#fcfcfc" d="M 201.5,279.5 C 203.833,279.5 206.167,279.5 208.5,279.5C 208.334,284.511 208.501,289.511 209,294.5C 211.966,297.265 214.633,296.932 217,293.5C 217.499,288.845 217.666,284.179 217.5,279.5C 222.5,279.5 227.5,279.5 232.5,279.5C 232.334,285.509 232.501,291.509 233,297.5C 235.716,301.476 238.383,301.476 241,297.5C 241.499,291.509 241.666,285.509 241.5,279.5C 246.5,279.5 251.5,279.5 256.5,279.5C 256.334,285.509 256.501,291.509 257,297.5C 259.178,301.065 261.844,301.399 265,298.5C 265.5,292.175 265.666,285.842 265.5,279.5C 270.5,279.5 275.5,279.5 280.5,279.5C 280.177,286.022 280.51,292.355 281.5,298.5C 281.685,300.89 283.018,301.89 285.5,301.5C 287.982,301.89 289.315,300.89 289.5,298.5C 290.49,292.355 290.823,286.022 290.5,279.5C 295.5,279.5 300.5,279.5 305.5,279.5C 305.334,284.511 305.501,289.511 306,294.5C 308.966,297.265 311.633,296.932 314,293.5C 314.499,288.845 314.666,284.179 314.5,279.5C 319.5,279.5 324.5,279.5 329.5,279.5C 329.334,284.844 329.501,290.177 330,295.5C 332.617,299.476 335.284,299.476 338,295.5C 338.499,290.177 338.666,284.844 338.5,279.5C 343.5,279.5 348.5,279.5 353.5,279.5C 353.334,285.842 353.5,292.175 354,298.5C 356.321,301.917 358.988,302.25 362,299.5C 362.5,292.842 362.666,286.175 362.5,279.5C 365.167,279.5 367.833,279.5 370.5,279.5C 370.5,300.167 370.5,320.833 370.5,341.5C 314.167,341.5 257.833,341.5 201.5,341.5C 201.5,320.833 201.5,300.167 201.5,279.5 Z"/></g>
<g><path style="opacity:1" fill="#8b5aa0" d="M 222.5,305.5 C 238.64,306.444 244.14,314.444 239,329.5C 233.007,336.727 225.841,338.227 217.5,334C 211.833,328.681 209.999,322.181 212,314.5C 214.505,310.189 218.005,307.189 222.5,305.5 Z"/></g>
<g><path style="opacity:1" fill="#f6f3f7" d="M 223.5,314.5 C 231.867,314.739 234.2,318.572 230.5,326C 223.388,328.554 219.888,326.054 220,318.5C 221.376,317.295 222.542,315.962 223.5,314.5 Z"/></g>
<g><path style="opacity:0.995" fill="#7b60a5" d="M 410.5,337.5 C 439.833,337.5 469.167,337.5 498.5,337.5C 496.896,343.311 494.896,348.978 492.5,354.5C 465.241,353.509 437.907,353.176 410.5,353.5C 410.5,348.167 410.5,342.833 410.5,337.5 Z"/></g>
<g><path style="opacity:0.996" fill="#7466a9" d="M 102.5,352.5 C 104.3,356.76 106.633,360.76 109.5,364.5C 80.8333,364.5 52.1667,364.5 23.5,364.5C 21.5969,361.021 19.9302,357.354 18.5,353.5C 46.6716,353.831 74.6716,353.498 102.5,352.5 Z"/></g>
<g><path style="opacity:0.998" fill="#7365a9" d="M 410.5,353.5 C 437.907,353.176 465.241,353.509 492.5,354.5C 491.343,358.147 489.677,361.48 487.5,364.5C 461.833,364.5 436.167,364.5 410.5,364.5C 410.5,360.833 410.5,357.167 410.5,353.5 Z"/></g>
<g><path style="opacity:0.999" fill="#7271b1" d="M 23.5,364.5 C 52.1667,364.5 80.8333,364.5 109.5,364.5C 112.618,366.563 115.952,368.396 119.5,370C 209.5,370.333 299.5,370.667 389.5,371C 392.899,372.077 396.233,373.244 399.5,374.5C 276.167,375.167 152.833,375.833 29.5,376.5C 26.9922,372.818 24.9922,368.818 23.5,364.5 Z"/></g>
<g><path style="opacity:0.994" fill="#6d6aad" d="M 410.5,364.5 C 436.167,364.5 461.833,364.5 487.5,364.5C 486.008,368.818 484.008,372.818 481.5,376.5C 458.006,375.502 434.339,375.169 410.5,375.5C 410.5,371.833 410.5,368.167 410.5,364.5 Z"/></g>
<g><path style="opacity:0.999" fill="#676fb0" d="M 399.5,374.5 C 402.81,376.482 405.81,378.815 408.5,381.5C 408.56,382.043 408.893,382.376 409.5,382.5C 410.474,380.257 410.808,377.924 410.5,375.5C 434.339,375.169 458.006,375.502 481.5,376.5C 480.258,380.655 478.258,384.322 475.5,387.5C 329.001,386.5 182.334,386.167 35.5,386.5C 33.0002,383.506 31.0002,380.173 29.5,376.5C 152.833,375.833 276.167,375.167 399.5,374.5 Z"/></g>
<g><path style="opacity:0.998" fill="#6074b4" d="M 35.5,386.5 C 182.334,386.167 329.001,386.5 475.5,387.5C 473.527,391.457 471.194,395.124 468.5,398.5C 326.402,397.168 184.402,397.168 42.5,398.5C 39.6654,394.836 37.332,390.836 35.5,386.5 Z"/></g>
<g><path style="opacity:0.998" fill="#5a78b7" d="M 468.5,398.5 C 466.748,401.672 464.748,404.672 462.5,407.5C 324.666,407.167 186.999,407.5 49.5,408.5C 47.1792,405.204 44.8458,401.871 42.5,398.5C 184.402,397.168 326.402,397.168 468.5,398.5 Z"/></g>
<g><path style="opacity:0.998" fill="#547dbb" d="M 462.5,407.5 C 460.183,411.146 457.516,414.48 454.5,417.5C 321.999,417.167 189.666,417.5 57.5,418.5C 54.4838,415.48 51.8171,412.146 49.5,408.5C 186.999,407.5 324.666,407.167 462.5,407.5 Z"/></g>
<g><path style="opacity:0.998" fill="#4e81be" d="M 454.5,417.5 C 452.212,421.456 449.212,424.789 445.5,427.5C 318.833,427.5 192.167,427.5 65.5,427.5C 62.6082,424.729 59.9416,421.729 57.5,418.5C 189.666,417.5 321.999,417.167 454.5,417.5 Z"/></g>
<g><path style="opacity:0.998" fill="#4786c2" d="M 65.5,427.5 C 192.167,427.5 318.833,427.5 445.5,427.5C 441.539,433.129 436.873,438.129 431.5,442.5C 314.335,441.5 197.001,441.167 79.5,441.5C 73.9474,437.737 69.2807,433.07 65.5,427.5 Z"/></g>
<g><path style="opacity:0.997" fill="#408bc6" d="M 79.5,441.5 C 197.001,441.167 314.335,441.5 431.5,442.5C 428.833,444.833 426.167,447.167 423.5,449.5C 311.5,449.5 199.5,449.5 87.5,449.5C 84.5,447.167 81.8333,444.5 79.5,441.5 Z"/></g>
<g><path style="opacity:0.998" fill="#3c8ec9" d="M 87.5,449.5 C 199.5,449.5 311.5,449.5 423.5,449.5C 419.235,453.638 414.569,457.305 409.5,460.5C 306.668,459.501 203.668,459.167 100.5,459.5C 95.5869,456.882 91.2535,453.548 87.5,449.5 Z"/></g>
<g><path style="opacity:0.996" fill="#3693cc" d="M 100.5,459.5 C 203.668,459.167 306.668,459.501 409.5,460.5C 406.403,463.888 402.736,466.555 398.5,468.5C 303.665,468.167 208.999,468.501 114.5,469.5C 109.473,466.655 104.806,463.321 100.5,459.5 Z"/></g>
<g><path style="opacity:0.994" fill="#2f98d0" d="M 398.5,468.5 C 391.164,474.173 383.164,478.839 374.5,482.5C 294.668,481.501 214.668,481.167 134.5,481.5C 127.162,478.503 120.495,474.503 114.5,469.5C 208.999,468.501 303.665,468.167 398.5,468.5 Z"/></g>
<g><path style="opacity:0.991" fill="#279ed4" d="M 134.5,481.5 C 214.668,481.167 294.668,481.501 374.5,482.5C 362.156,489.51 349.156,495.176 335.5,499.5C 282.167,498.167 228.833,498.167 175.5,499.5C 161.183,494.838 147.516,488.838 134.5,481.5 Z"/></g>
<g><path style="opacity:0.975" fill="#1ea5d9" d="M 175.5,499.5 C 228.833,498.167 282.167,498.167 335.5,499.5C 317.458,505.307 299.124,509.307 280.5,511.5C 263.833,511.5 247.167,511.5 230.5,511.5C 211.901,509.271 193.567,505.271 175.5,499.5 Z"/></g>
</svg>
