<?xml version="1.0" encoding="UTF-8"?>
<!DOCTYPE svg PUBLIC "-//W3C//DTD SVG 1.1//EN" "http://www.w3.org/Graphics/SVG/1.1/DTD/svg11.dtd">
<svg xmlns="http://www.w3.org/2000/svg" version="1.1" width="512px" height="512px" style="shape-rendering:geometricPrecision; text-rendering:geometricPrecision; image-rendering:optimizeQuality; fill-rule:evenodd; clip-rule:evenodd" xmlns:xlink="http://www.w3.org/1999/xlink">
<g><path style="opacity:0.998" fill="#2ab9eb" d="M 237.5,-0.5 C 249.833,-0.5 262.167,-0.5 274.5,-0.5C 353.473,78.1396 432.473,156.806 511.5,235.5C 511.5,249.833 511.5,264.167 511.5,278.5C 510.573,284.177 509.573,289.844 508.5,295.5C 507.761,295.631 507.094,295.464 506.5,295C 462.278,251.112 418.445,206.945 375,162.5C 374.821,166.025 374.321,169.359 373.5,172.5C 373.667,161.162 373.5,149.828 373,138.5C 370.767,131.434 366.267,126.434 359.5,123.5C 319.201,82.7013 278.701,42.0346 238,1.5C 237.536,0.905578 237.369,0.238911 237.5,-0.5 Z"/></g>
<g><path style="opacity:0.997" fill="#26bcee" d="M 274.5,-0.5 C 275.833,-0.5 277.167,-0.5 278.5,-0.5C 288.432,0.829812 298.432,2.49648 308.5,4.5C 374.167,70.8333 440.167,136.833 506.5,202.5C 508.504,212.568 510.17,222.568 511.5,232.5C 511.5,233.5 511.5,234.5 511.5,235.5C 432.473,156.806 353.473,78.1396 274.5,-0.5 Z"/></g>
<g><path style="opacity:0.998" fill="#2db5e8" d="M 232.5,-0.5 C 234.167,-0.5 235.833,-0.5 237.5,-0.5C 237.369,0.238911 237.536,0.905578 238,1.5C 278.701,42.0346 319.201,82.7013 359.5,123.5C 343.858,122.58 328.191,122.247 312.5,122.5C 274.535,84.0346 236.368,45.7013 198,7.5C 197.536,6.90558 197.369,6.23891 197.5,5.5C 209.2,2.95649 220.867,0.956491 232.5,-0.5 Z"/></g>
<g><path style="opacity:0.994" fill="#23c0f1" d="M 308.5,4.5 C 381.883,21.0765 438.05,61.4098 477,125.5C 490.87,149.609 500.704,175.276 506.5,202.5C 440.167,136.833 374.167,70.8333 308.5,4.5 Z"/></g>
<g><path style="opacity:0.994" fill="#32b0e5" d="M 197.5,5.5 C 197.369,6.23891 197.536,6.90558 198,7.5C 236.368,45.7013 274.535,84.0346 312.5,122.5C 299.833,122.5 287.167,122.5 274.5,122.5C 275.743,112.945 273.077,104.778 266.5,98C 255.823,92.1203 246.823,93.9536 239.5,103.5C 239.649,102.448 239.483,101.448 239,100.5C 211.632,73.2987 184.465,45.9653 157.5,18.5C 170.423,12.9702 183.757,8.63686 197.5,5.5 Z"/></g>
<g><path style="opacity:0.996" fill="#36abe1" d="M 157.5,18.5 C 184.465,45.9653 211.632,73.2987 239,100.5C 239.483,101.448 239.649,102.448 239.5,103.5C 237.007,109.554 236.007,115.888 236.5,122.5C 223.5,122.5 210.5,122.5 197.5,122.5C 170.5,95.1667 143.5,67.8333 116.5,40.5C 129.076,31.3748 142.743,24.0415 157.5,18.5 Z"/></g>
<g><path style="opacity:0.996" fill="#3ca5dd" d="M 116.5,40.5 C 143.5,67.8333 170.5,95.1667 197.5,122.5C 181.79,122.099 166.123,122.599 150.5,124C 146.387,125.948 143.054,128.781 140.5,132.5C 120.194,111.527 99.527,90.8604 78.5,70.5C 89.7242,58.6019 102.391,48.6019 116.5,40.5 Z"/></g>
<g><path style="opacity:0.994" fill="#429fd8" d="M 78.5,70.5 C 99.527,90.8604 120.194,111.527 140.5,132.5C 139.406,134.359 138.573,136.359 138,138.5C 137.5,148.828 137.334,159.161 137.5,169.5C 136.679,172.641 136.179,175.975 136,179.5C 108.248,152.249 81.0811,124.583 54.5,96.5C 61.4244,86.9062 69.4244,78.2396 78.5,70.5 Z"/></g>
<g><path style="opacity:0.92" fill="#34afe4" d="M 253.5,108.5 C 255.722,108.178 257.556,108.845 259,110.5C 259.499,114.486 259.666,118.486 259.5,122.5C 256.833,122.5 254.167,122.5 251.5,122.5C 250.985,117.52 251.652,112.854 253.5,108.5 Z"/></g>
<g><path style="opacity:0.993" fill="#4898d3" d="M 54.5,96.5 C 81.0811,124.583 108.248,152.249 136,179.5C 136.179,175.975 136.679,172.641 137.5,169.5C 137.5,203.833 137.5,238.167 137.5,272.5C 136.676,268.688 136.176,264.688 136,260.5C 98.583,222.582 60.7496,185.249 22.5,148.5C 30.6623,129.486 41.3289,112.152 54.5,96.5 Z"/></g>
<g><path style="opacity:0.971" fill="#36ace2" d="M 301.5,228.5 C 301.649,227.448 301.483,226.448 301,225.5C 297.558,222.568 294.725,219.235 292.5,215.5C 297.946,209.88 302.446,203.546 306,196.5C 306.312,191.427 304.978,186.76 302,182.5C 301.346,181.304 300.846,181.304 300.5,182.5C 304.346,192.794 301.68,200.961 292.5,207C 280.335,211.063 271.835,207.23 267,195.5C 265.891,179.607 273.391,171.773 289.5,172C 286.691,170.342 283.691,169.175 280.5,168.5C 275.518,170.657 270.851,173.323 266.5,176.5C 263.131,172.131 259.131,168.464 254.5,165.5C 274.525,148.908 297.525,142.741 323.5,147C 324.931,147.465 326.097,148.299 327,149.5C 332.824,180.527 324.324,206.86 301.5,228.5 Z M 304.5,162.5 C 307.287,161.523 310.287,161.19 313.5,161.5C 313.664,164.187 313.497,166.854 313,169.5C 310.564,166.553 307.731,164.22 304.5,162.5 Z M 283.5,188.5 C 286.861,189.203 287.194,190.537 284.5,192.5C 282.358,191.563 282.024,190.23 283.5,188.5 Z"/></g>
<g><path style="opacity:0.996" fill="#4f92ce" d="M 22.5,148.5 C 60.7496,185.249 98.583,222.582 136,260.5C 136.176,264.688 136.676,268.688 137.5,272.5C 137.334,281.839 137.5,291.173 138,300.5C 139.623,306.457 143.123,310.957 148.5,314C 168.433,315.464 188.433,315.964 208.5,315.5C 203.266,327.136 197.599,338.636 191.5,350C 183.833,350.333 176.167,350.667 168.5,351C 167.016,351.662 165.683,352.496 164.5,353.5C 112.167,300.5 59.5,247.833 6.5,195.5C 9.8665,179.065 15.1998,163.399 22.5,148.5 Z"/></g>
<g><path style="opacity:0.996" fill="#2fb3e7" d="M 508.5,295.5 C 507.091,307.802 504.424,319.802 500.5,331.5C 458.554,288.887 416.221,246.554 373.5,204.5C 373.5,193.833 373.5,183.167 373.5,172.5C 374.321,169.359 374.821,166.025 375,162.5C 418.445,206.945 462.278,251.112 506.5,295C 507.094,295.464 507.761,295.631 508.5,295.5 Z"/></g>
<g><path style="opacity:0.996" fill="#548cca" d="M 6.5,195.5 C 59.5,247.833 112.167,300.5 164.5,353.5C 163.167,357.028 163.833,360.195 166.5,363C 172.044,364.404 177.71,364.904 183.5,364.5C 176.971,378.559 170.138,392.559 163,406.5C 162.505,408.473 162.338,410.473 162.5,412.5C 162.565,412.938 162.399,413.272 162,413.5C 107.965,359.299 53.7987,305.299 -0.5,251.5C -0.5,245.167 -0.5,238.833 -0.5,232.5C 0.862119,219.996 3.19545,207.662 6.5,195.5 Z"/></g>
<g><path style="opacity:0.974" fill="#439fd8" d="M 205.5,195.5 C 228.887,220.389 252.887,244.889 277.5,269C 278.094,269.464 278.761,269.631 279.5,269.5C 275.379,277.573 270.379,285.073 264.5,292C 257.539,294.685 253.206,292.352 251.5,285C 253.064,275.042 252.564,265.209 250,255.5C 247.313,256.713 244.48,257.38 241.5,257.5C 239.133,268.044 233.133,275.877 223.5,281C 213.701,285.867 203.367,289.034 192.5,290.5C 187.226,290.045 184.559,287.212 184.5,282C 185.885,264.567 192.885,249.9 205.5,238C 209.288,236.022 213.121,234.189 217,232.5C 217.953,229.568 218.453,226.568 218.5,223.5C 207.517,222.815 196.517,222.315 185.5,222C 180.021,216.694 180.355,211.694 186.5,207C 192.529,202.653 198.862,198.82 205.5,195.5 Z M 233.5,233.5 C 236.899,235.388 239.899,237.888 242.5,241C 238.102,242.375 234.768,241.042 232.5,237C 233.337,235.989 233.67,234.822 233.5,233.5 Z M 219.5,248.5 C 222.225,249.713 224.559,251.546 226.5,254C 224.614,259.218 221.281,263.218 216.5,266C 212.482,268.226 208.315,270.059 204,271.5C 205.67,261.498 210.837,253.832 219.5,248.5 Z"/></g>
<g><path style="opacity:0.995" fill="#32b0e4" d="M 373.5,204.5 C 416.221,246.554 458.554,288.887 500.5,331.5C 498.422,339.068 495.756,346.401 492.5,353.5C 452.833,314.167 413.167,274.833 373.5,235.5C 373.5,225.167 373.5,214.833 373.5,204.5 Z"/></g>
<g><path style="opacity:0.979" fill="#3da4dc" d="M 254.5,165.5 C 259.131,168.464 263.131,172.131 266.5,176.5C 254.219,187.602 245.386,200.936 240,216.5C 247.01,222.344 253.51,228.677 259.5,235.5C 271.327,230.091 282.327,223.425 292.5,215.5C 294.725,219.235 297.558,222.568 301,225.5C 301.483,226.448 301.649,227.448 301.5,228.5C 298.708,230.79 296.041,233.29 293.5,236C 289.784,247.594 285.117,258.761 279.5,269.5C 278.761,269.631 278.094,269.464 277.5,269C 252.887,244.889 228.887,220.389 205.5,195.5C 216.32,189.611 227.653,184.777 239.5,181C 244.004,175.33 249.004,170.163 254.5,165.5 Z M 225.5,203.5 C 226.399,204.994 226.065,206.494 224.5,208C 222.447,208.325 220.447,207.991 218.5,207C 220.925,205.787 223.259,204.621 225.5,203.5 Z M 269.5,248.5 C 270.239,248.369 270.906,248.536 271.5,249C 270.144,251.398 268.977,253.898 268,256.5C 265.538,253.096 266.038,250.43 269.5,248.5 Z"/></g>
<g><path style="opacity:0.996" fill="#36abe1" d="M 373.5,235.5 C 413.167,274.833 452.833,314.167 492.5,353.5C 486.626,368.922 478.959,383.256 469.5,396.5C 438.581,362.913 406.581,330.246 373.5,298.5C 373.5,277.5 373.5,256.5 373.5,235.5 Z"/></g>
<g><path style="opacity:0.997" fill="#5986c5" d="M -0.5,251.5 C 53.7987,305.299 107.965,359.299 162,413.5C 162.399,413.272 162.565,412.938 162.5,412.5C 163.167,413.167 163.833,413.833 164.5,414.5C 164.369,415.239 164.536,415.906 165,416.5C 196.701,448.035 228.201,479.701 259.5,511.5C 250.5,511.5 241.5,511.5 232.5,511.5C 217.276,509.685 202.276,506.685 187.5,502.5C 128.451,442.451 68.7845,383.118 8.5,324.5C 4.19614,309.316 1.19614,293.983 -0.5,278.5C -0.5,269.5 -0.5,260.5 -0.5,251.5 Z"/></g>
<g><path style="opacity:0.996" fill="#3ca6dd" d="M 373.5,298.5 C 406.581,330.246 438.581,362.913 469.5,396.5C 462.903,406.758 455.57,416.425 447.5,425.5C 412.418,388.917 376.752,352.75 340.5,317C 332.656,316.829 324.989,316.329 317.5,315.5C 331.504,315.667 345.504,315.5 359.5,315C 367.225,312.108 371.891,306.608 373.5,298.5 Z"/></g>
<g><path style="opacity:0.988" fill="#41a0d9" d="M 317.5,315.5 C 324.989,316.329 332.656,316.829 340.5,317C 376.752,352.75 412.418,388.917 447.5,425.5C 437.431,436.904 426.431,447.238 414.5,456.5C 413.761,456.631 413.094,456.464 412.5,456C 386.632,429.965 360.632,404.132 334.5,378.5C 331.941,374.388 329.608,370.054 327.5,365.5C 333.245,364.909 338.912,364.076 344.5,363C 348.493,358.293 347.827,354.293 342.5,351C 334.833,350.667 327.167,350.333 319.5,350C 313.401,338.636 307.734,327.136 302.5,315.5C 307.5,315.5 312.5,315.5 317.5,315.5 Z"/></g>
<g><path style="opacity:0.996" fill="#469bd5" d="M 224.5,315.5 C 245.177,315.167 265.844,315.5 286.5,316.5C 292.422,327.343 298.089,338.343 303.5,349.5C 271.5,350.833 239.5,350.833 207.5,349.5C 213.705,338.423 219.372,327.09 224.5,315.5 Z"/></g>
<g><path style="opacity:0.994" fill="#5e81c2" d="M 8.5,324.5 C 68.7845,383.118 128.451,442.451 187.5,502.5C 111.737,480.241 56.57,433.574 22,362.5C 16.4053,350.216 11.9053,337.549 8.5,324.5 Z"/></g>
<g><path style="opacity:0.992" fill="#5090cd" d="M 229.5,364.5 C 229.5,364.833 229.5,365.167 229.5,365.5C 221.826,365.334 214.159,365.5 206.5,366C 250.751,409.75 294.418,453.917 337.5,498.5C 330.351,501.121 323.018,503.121 315.5,504.5C 274.868,463.368 234.035,422.368 193,381.5C 192.536,380.906 192.369,380.239 192.5,379.5C 194.807,374.886 197.14,370.22 199.5,365.5C 209.478,364.501 219.478,364.168 229.5,364.5 Z"/></g>
<g><path style="opacity:0.995" fill="#4898d3" d="M 229.5,365.5 C 229.5,365.167 229.5,364.833 229.5,364.5C 256.841,364.167 284.175,364.5 311.5,365.5C 320.039,382.079 328.706,398.579 337.5,415C 341.27,417.279 344.604,416.779 347.5,413.5C 348.544,411.232 348.711,408.899 348,406.5C 343.216,397.267 338.716,387.933 334.5,378.5C 360.632,404.132 386.632,429.965 412.5,456C 413.094,456.464 413.761,456.631 414.5,456.5C 399.43,469.202 382.763,479.536 364.5,487.5C 363.448,487.649 362.448,487.483 361.5,487C 321.167,446.667 280.833,406.333 240.5,366C 236.848,365.501 233.182,365.335 229.5,365.5 Z"/></g>
<g><path style="opacity:0.998" fill="#4d93cf" d="M 229.5,365.5 C 233.182,365.335 236.848,365.501 240.5,366C 280.833,406.333 321.167,446.667 361.5,487C 362.448,487.483 363.448,487.649 364.5,487.5C 355.909,491.956 346.909,495.622 337.5,498.5C 294.418,453.917 250.751,409.75 206.5,366C 214.159,365.5 221.826,365.334 229.5,365.5 Z"/></g>
<g><path style="opacity:0.995" fill="#548cca" d="M 192.5,379.5 C 192.369,380.239 192.536,380.906 193,381.5C 234.035,422.368 274.868,463.368 315.5,504.5C 303.339,507.804 291.005,510.138 278.5,511.5C 272.167,511.5 265.833,511.5 259.5,511.5C 228.201,479.701 196.701,448.035 165,416.5C 164.536,415.906 164.369,415.239 164.5,414.5C 167.596,417.125 170.763,417.125 174,414.5C 180.196,402.772 186.362,391.105 192.5,379.5 Z"/></g>
</svg>
